PathFileType	4	(X/Y/Z)	Patient4_TMGait_0pt8_01_right_10.trc.trc
DataRate	CameraRate	NumFrames	NumMarkers	Units	OrigDataRate	OrigDataStartFrame	OrigNumFrames
85.889570552147	85.889570552147	6	33	mm	85.889570552147	36	       141
Frame#	Time	Sacral			L.Shoulder			Chest			R.Shoulder			Neck			R.ASIS			L.ASIS			R.Thigh.Superior			R.Thigh.Lateral			R.Thigh.Inferior			R.Patella			L.Thigh.Superior			L.Thigh.Lateral			L.Thigh.Inferior			L.Patella			L.Shank.Superior			L.Shank.Lateral			L.Shank.Inferior			R.Shank.Superior			R.Shank.Lateral			R.Shank.Inferior			R.Heel			R.Midfoot.Superior			R.Midfoot.Lateral			R.Toe			L.Heel			L.Midfoot.Lateral			L.Midfoot.Superior			L.Toe			L.Elbow			L.Wrist			R.Elbow			R.Wrist			
		X1	Y1	Z1	X2	Y2	Z2	X3	Y3	Z3	X4	Y4	Z4	X5	Y5	Z5	X6	Y6	Z6	X7	Y7	Z7	X8	Y8	Z8	X9	Y9	Z9	X10	Y10	Z10	X11	Y11	Z11	X12	Y12	Z12	X13	Y13	Z13	X14	Y14	Z14	X15	Y15	Z15	X16	Y16	Z16	X17	Y17	Z17	X18	Y18	Z18	X19	Y19	Z19	X20	Y20	Z20	X21	Y21	Z21	X22	Y22	Z22	X23	Y23	Z23	X24	Y24	Z24	X25	Y25	Z25	X26	Y26	Z26	X27	Y27	Z27	X28	Y28	Z28	X29	Y29	Z29	X30	Y30	Z30	X31	Y31	Z31	X32	Y32	Z32	X33	Y33	Z33	

36	11.347500000000	866.014465609236	992.043196201311	496.851346690312	1036.633333096325	1430.920660860235	328.693601368642	1132.726746652646	1363.464984171229	494.707851478041	1034.907898982854	1428.930246223835	664.524939728655	1006.635486781443	1486.307561274187	483.813400947448	1093.323182681734	934.800610013955	621.637287033879	1084.599172738649	956.411146213027	347.051813453498	1162.961065331933	751.573204780193	593.612146060401	1096.393162215256	631.160274329386	650.875325992364	1187.104261191516	590.628573734405	577.706762207692	1201.503590333378	499.519062767174	585.390930107862	1106.901999353348	728.206722404686	367.005734353937	1005.527904349299	621.419039225476	302.265320296475	1082.948309382397	528.974110769239	359.451394067532	1067.562691836708	445.455154459095	357.672693429631	996.938095681627	391.109225098470	352.651456415673	856.666470322562	350.228057798289	301.116927788433	839.102561066865	224.326248504300	362.689931698922	1173.370564606798	408.098947090847	589.997620463157	1101.261469419715	301.972926763160	647.896562856273	1150.178603289525	208.590592129399	587.211829943691	1022.125016843283	42.843827972010	549.372842228733	1191.466912233317	98.245620405121	593.237884094697	1102.232566948440	37.240794411776	628.356014928626	1310.233291654824	47.319278407982	625.770329389444	645.587963461891	157.812939588653	397.819539894518	707.079541643528	109.902270420455	322.760975764761	810.377196929031	125.668500261612	346.625227833021	894.083085786603	32.165205231366	329.128852262577	1070.427741011403	1093.065172458126	184.695393618937	1321.473308562823	1045.615458470010	195.403109839516	902.298838005039	1106.923101438802	763.964916607940	862.365191880991	851.694048912566	777.765292374386	
37	11.359142857143	865.770646167834	994.216772824162	500.665813860024	1034.966482131821	1432.961614041043	331.210233169604	1133.119018595135	1365.041769559138	495.893453501117	1037.666845361864	1430.507508458036	666.933702810985	1006.849328027566	1488.105792135022	486.509266981713	1093.987394368700	936.737828830544	623.446689932256	1083.667424937581	958.110576488814	348.775499645296	1160.331865766246	750.665360063425	596.872728123633	1091.216687527110	631.687590859688	653.076637819819	1181.214373554855	589.791581259402	579.790343501704	1193.968700351147	498.823382950429	587.174723908355	1111.416783679855	731.507756094198	369.209010386306	1014.224087622437	622.021481793584	303.768462398097	1094.936973589269	531.365148479838	360.419814516427	1080.671620059991	446.569351188312	357.964350557374	1007.991898888367	392.523144299063	353.358036449542	865.871220914311	356.912038666426	302.817519531216	844.366377408023	231.417261772750	363.769811017218	1165.343815637272	407.854160409004	591.731993184268	1092.643485012783	301.917825769492	649.178995999802	1141.372825020175	208.526121739220	588.237015289989	1013.000314611482	42.839057345278	549.691085248112	1182.442655180048	98.467769109820	593.832867718731	1093.105180719669	37.206621630675	628.640167867212	1301.115602111181	47.233210351415	626.107978701482	648.739517187043	173.909638009139	400.166527334997	707.146872724441	123.114746660205	324.291242463112	811.650890406740	133.072413732679	347.258329858985	889.542368155640	32.760756580731	328.330128876016	1063.235892430455	1093.192989666278	189.983611163030	1312.762485136272	1036.228844519832	199.038824982225	912.268841175568	1105.076289987637	768.261965205131	881.272472380781	848.436047123262	780.680175236287	
38	11.370785714286	865.360999568096	996.291555584857	504.390525931777	1033.023199386168	1434.856724121229	333.588714026534	1133.328983379981	1366.469057391413	496.866394558697	1040.360416040033	1431.881765780162	669.203396480672	1006.938627639555	1489.786531124510	489.117384728556	1094.458781951466	938.570977398513	625.073629023927	1082.588777784976	959.738351103592	350.333153142506	1157.392227148205	749.759957708661	599.821577269013	1085.888177607016	632.217296710405	655.157535656665	1175.069120980603	588.976726316910	581.655599649738	1186.146535568929	498.171736435904	588.792148916489	1115.706075566825	735.098382890962	371.250652395683	1022.748926176922	623.098726199636	304.983469574725	1106.640916611784	534.372159813310	361.121662032682	1093.696306895357	448.386491230225	358.035083332532	1019.290826566755	394.487238968914	353.829037569282	875.526307076833	363.650430592738	304.572080211823	850.652506741041	238.568979323818	364.968082281777	1157.121607021238	407.666628242458	593.321650425083	1083.930395665259	301.899343716180	650.357084640508	1132.504871269282	208.513540340814	589.185778166513	1003.843202990331	42.897482526563	549.984640982383	1173.421774587408	98.656032679130	594.388177112435	1083.955606899863	37.175513775351	628.873439777032	1291.991200450727	47.014616990723	626.371392020904	653.588740525401	188.881245097750	403.095699928398	708.975745639252	136.012137078914	326.157098127060	814.387422011975	140.830908214043	348.055164029872	887.027222431803	34.242208187383	327.174861645815	1055.853943066615	1093.285884647100	195.110498117144	1303.276253342473	1025.779580201839	202.661314540934	922.684967898331	1103.104274765547	772.535806939477	901.365567079276	845.254965905689	783.463878979236	
39	11.382428571429	864.826784593086	998.235662172743	508.022698671373	1030.853097879063	1436.581970749453	335.812362760003	1133.348901743329	1367.744696326676	497.645873996662	1042.921197618570	1433.049329273352	671.321644353447	1006.898729371154	1491.344223021581	491.607754015541	1094.748004910466	940.286145649680	626.542847466367	1081.317408483316	961.261488351670	351.767757000063	1154.227436092922	748.927547582800	602.406886462603	1080.529566330131	632.766613446597	657.130374245636	1168.802229187475	588.212078211927	583.327359281849	1178.180715742499	497.585807730047	590.271419773595	1119.676398323847	738.970417924239	373.095942873692	1030.923018728840	624.684456470333	305.918972547268	1117.884897816805	538.007028607631	361.500176628419	1106.479247100662	450.927528950528	357.793545117202	1030.708104728040	396.994479920422	354.003694350628	885.492475420732	370.257432554568	306.329330313278	857.990349089098	245.518774401554	366.217920556393	1148.836753246878	407.538447264786	594.779827207583	1075.216656747765	301.939434310027	651.449281665451	1123.626281201536	208.550459296641	590.069905872260	994.636822921421	43.028894147776	550.270282220991	1164.382644989021	98.797343532077	594.915110910973	1074.766650021044	37.151824128198	629.072586821969	1282.843954131072	46.674571486342	626.574515960184	660.119575773899	202.114877629607	406.516043874070	712.679550576915	148.008856655336	328.299585288298	818.743496387701	148.583039531060	348.945841928379	886.917934519911	36.640113545811	325.674476709678	1048.336258711312	1093.309113497440	200.051221703975	1292.934982444328	1014.336001271443	206.257756285957	933.569453385308	1100.996687403822	776.705356071827	922.544082226673	842.236200463770	786.099212445349	
40	11.394071428571	864.204728505594	1000.033245018256	511.560938835369	1028.512468068926	1438.131480521305	337.874303560387	1133.177919414844	1368.880573398324	498.259326960773	1045.290820142778	1434.029741275128	673.280022598818	1006.725684351980	1492.783731696428	493.954084209148	1094.868566006349	941.878461462327	627.882652720963	1079.801384909576	962.653525170002	353.124983600676	1150.913391492450	748.217080831083	604.617419487514	1075.216109250099	633.341644305568	659.004421894964	1162.512862865304	587.513330252560	584.838303119974	1170.183897812115	497.079126181283	591.634671151861	1123.269603709815	743.105962765619	374.712740054195	1038.613643977724	626.776641084441	306.592231157624	1128.550862388205	542.251513619703	361.510470534355	1118.906125264874	454.187268864643	357.174483580182	1042.157172978565	400.008048288192	353.846364347670	895.677804548915	376.525732090400	308.022202270944	866.415948083485	251.999193036695	367.447063801969	1140.590221131025	407.468804596240	596.121897006170	1066.566294454400	302.051881102424	652.467372948949	1114.776383045305	208.634054613889	590.902266806418	985.378531120377	43.235916184142	550.560187435602	1155.312719916969	98.879751706841	595.414294620039	1065.534991084177	37.138677906112	629.251474578028	1273.667400713714	46.240417903740	626.731815671438	668.291835358792	213.102849904999	410.282152012992	718.337978132019	158.562108000084	330.628650849664	824.855559388808	155.942052729604	349.858861813029	889.530633873033	39.848840152754	323.881004949420	1040.736564622491	1093.251082412966	204.797552215309	1281.649415189835	1001.984129026251	209.818059982982	944.949113097000	1098.774772720991	780.686858988450	944.714028095251	839.487627243598	788.563592070787	
41	11.405714285714	863.520167470709	1001.681777221652	514.999135662212	1026.058664036918	1439.511683454140	339.777037565483	1132.822537974159	1369.895745050819	498.739148788947	1047.424822233687	1434.857986798809	675.074403895580	1006.418267229837	1494.114740196294	496.136036267808	1094.834237385430	943.347644393537	629.120320218376	1078.000286792046	963.898262091881	354.446976910836	1147.510996388135	747.651271534962	606.474277407369	1069.984821109003	633.939089557592	660.783080321136	1156.264724951307	586.884745782779	586.219547320436	1162.235985783828	496.656203253894	592.893139408365	1126.461259692194	747.475241548806	376.076109626888	1045.738600486506	629.338424760227	307.027416940752	1138.572502432858	547.057799148631	361.131231445295	1130.900472530346	458.133720647024	356.154937786366	1053.584335145213	403.465018601489	353.355303452233	906.033728432668	382.243947638037	309.577124704966	875.959760989013	257.760926416368	368.585715207167	1132.449467444642	407.452860439943	597.357529883686	1058.019090588923	302.241273371096	653.416266314593	1105.981741181652	208.759678002023	591.690770744436	976.075237312490	43.514997154246	550.860740906611	1146.208694795797	98.897401754244	595.876339858184	1056.266753007296	37.137959283580	629.419801759023	1264.461937764672	45.746393245953	626.856053770351	678.046316929106	221.476787977183	414.205400020289	725.994182066028	167.215757620620	333.029692375097	832.824539276301	162.533268425286	350.727849106423	895.087795226823	43.631454153437	321.882221589501	1033.108457864260	1093.119804300146	209.354775495796	1269.324965613415	988.832758535388	213.335260128726	956.841666186057	1096.492110853248	784.400741275393	967.782602225418	837.137426586440	790.828312129701	
